<svg width="14" height="14" viewBox="0 0 14 14" fill="none" xmlns="http://www.w3.org/2000/svg">
<path d="M7 1.34375C3.85547 1.34375 1.3125 3.91406 1.3125 7.03125C1.3125 10.1758 3.85547 12.7188 7 12.7188C10.1172 12.7188 12.6875 10.1758 12.6875 7.03125C12.6875 3.91406 10.1172 1.34375 7 1.34375ZM7 0.25C10.7188 0.25 13.7812 3.3125 13.7812 7.03125C13.7812 10.7773 10.7188 13.8125 7 13.8125C3.25391 13.8125 0.21875 10.7773 0.21875 7.03125C0.21875 3.3125 3.25391 0.25 7 0.25ZM7 1.78125C9.89844 1.78125 12.25 4.13281 12.25 7.03125C12.25 9.95703 9.89844 12.2812 7 12.2812C4.07422 12.2812 1.75 9.95703 1.75 7.03125C1.75 4.13281 4.07422 1.78125 7 1.78125ZM7 2.98438C6.45312 2.98438 6.01562 3.44922 6.01562 3.96875C6.01562 4.51562 6.45312 4.95312 7 4.95312C7.51953 4.95312 7.98438 4.51562 7.98438 3.96875C7.98438 3.44922 7.51953 2.98438 7 2.98438ZM10.1992 5.69141C10.4453 5.60938 10.582 5.39062 10.5273 5.14453C10.4727 4.92578 10.2266 4.76172 10.0078 4.81641C7.35547 5.44531 6.61719 5.44531 3.96484 4.81641C3.74609 4.76172 3.5 4.92578 3.44531 5.14453C3.39062 5.39062 3.52734 5.60938 3.77344 5.69141C4.53906 5.85547 5.27734 6.01953 6.01562 6.10156C5.98828 8.86328 5.6875 9.46484 5.33203 10.3672C5.22266 10.6133 5.35938 10.9141 5.60547 10.9961C5.85156 11.1055 6.15234 10.9688 6.23438 10.7227C6.48047 10.1211 6.69922 9.60156 6.86328 8.5625H7.10938C7.27344 9.60156 7.49219 10.1211 7.73828 10.7227C7.82031 10.9688 8.12109 11.1055 8.36719 10.9961C8.61328 10.9141 8.75 10.6133 8.64062 10.3672C8.28516 9.46484 7.98438 8.86328 7.95703 6.10156C8.69531 6.01953 9.43359 5.85547 10.1992 5.69141Z" fill="#4D4D4D"/>
</svg>
