<svg width="13" height="15" viewBox="0 0 13 15" fill="none" xmlns="http://www.w3.org/2000/svg">
<path d="M12.25 10.5938C12.25 10.8125 12.1406 11.0039 12.0039 11.1133C11.8672 11.5234 11.8672 12.7266 12.0039 13.1641C12.1406 13.2734 12.25 13.4648 12.25 13.6562V14.0938C12.25 14.4766 11.9492 14.75 11.5938 14.75H2.625C1.17578 14.75 0 13.5742 0 12.125V3.375C0 1.92578 1.17578 0.75 2.625 0.75H11.5938C11.9492 0.75 12.25 1.05078 12.25 1.40625V10.5938ZM3.5 4.41406V4.96094C3.5 5.07031 3.55469 5.125 3.66406 5.125H9.46094C9.54297 5.125 9.625 5.07031 9.625 4.96094V4.41406C9.625 4.33203 9.54297 4.25 9.46094 4.25H3.66406C3.55469 4.25 3.5 4.33203 3.5 4.41406ZM3.5 6.16406V6.71094C3.5 6.82031 3.55469 6.875 3.66406 6.875H9.46094C9.54297 6.875 9.625 6.82031 9.625 6.71094V6.16406C9.625 6.08203 9.54297 6 9.46094 6H3.66406C3.55469 6 3.5 6.08203 3.5 6.16406ZM10.418 13C10.3633 12.5352 10.3633 11.7422 10.418 11.25H2.625C2.13281 11.25 1.75 11.6602 1.75 12.125C1.75 12.6172 2.13281 13 2.625 13H10.418Z" fill="#4D4D4D"/>
</svg>
