<svg width="17" height="16" viewBox="0 0 17 16" fill="none" xmlns="http://www.w3.org/2000/svg">
<g filter="url(#filter0_i_871_6587)">
<path d="M8.5 16C6.37833 16 4.34331 15.1571 2.84315 13.6568C1.3429 12.1565 0.5 10.1217 0.5 8C0.5 5.87833 1.3429 3.84332 2.84315 2.34315C4.34353 0.842902 6.37833 0 8.5 0C10.6217 0 12.6567 0.842902 14.1568 2.34315C15.6571 3.84353 16.5 5.87833 16.5 8C16.4974 10.121 15.6538 12.1545 14.154 13.654C12.6543 15.1538 10.6207 15.9974 8.5 16ZM11.5851 5.94242V5.9423C11.7254 5.80678 11.8053 5.62063 11.8071 5.42558C11.8088 5.23053 11.7321 5.04292 11.5941 4.90496C11.4562 4.76701 11.2685 4.69031 11.0735 4.69202C10.8784 4.69372 10.6923 4.77371 10.5568 4.91397L8.5 6.97149L6.44323 4.91397C6.25853 4.7356 5.99346 4.66779 5.7457 4.73572C5.49805 4.80366 5.3046 4.99713 5.23665 5.24477C5.16871 5.49254 5.23653 5.7576 5.4149 5.9423L7.47167 7.99983L5.4149 10.0573C5.27464 10.1929 5.19465 10.379 5.19294 10.5741C5.19124 10.7691 5.26794 10.9567 5.40589 11.0947C5.54383 11.2326 5.73145 11.3093 5.9265 11.3076C6.12155 11.3059 6.3077 11.2259 6.44322 11.0857L8.49999 9.02815L10.5568 11.0857C10.6923 11.2259 10.8784 11.3059 11.0735 11.3076C11.2685 11.3093 11.4561 11.2326 11.5941 11.0947C11.7321 10.9567 11.8088 10.7691 11.807 10.5741C11.8053 10.379 11.7253 10.1929 11.5851 10.0573L9.52832 7.99983L11.5851 5.94242Z" fill="#F24024"/>
</g>
<defs>
<filter id="filter0_i_871_6587" x="0.5" y="0" width="17" height="17" filterUnits="userSpaceOnUse" color-interpolation-filters="sRGB">
<feFlood flood-opacity="0" result="BackgroundImageFix"/>
<feBlend mode="normal" in="SourceGraphic" in2="BackgroundImageFix" result="shape"/>
<feColorMatrix in="SourceAlpha" type="matrix" values="0 0 0 0 0 0 0 0 0 0 0 0 0 0 0 0 0 0 127 0" result="hardAlpha"/>
<feOffset dx="1" dy="1"/>
<feGaussianBlur stdDeviation="0.5"/>
<feComposite in2="hardAlpha" operator="arithmetic" k2="-1" k3="1"/>
<feColorMatrix type="matrix" values="0 0 0 0 0 0 0 0 0 0 0 0 0 0 0 0 0 0 0.1 0"/>
<feBlend mode="normal" in2="shape" result="effect1_innerShadow_871_6587"/>
</filter>
</defs>
</svg>
