<svg width="11" height="15" viewBox="0 0 11 15" fill="none" xmlns="http://www.w3.org/2000/svg">
<path d="M7.875 7.53125V8.29688C7.875 8.48828 7.71094 8.625 7.54688 8.625H2.95312C2.76172 8.625 2.625 8.48828 2.625 8.29688V7.53125C2.625 7.36719 2.76172 7.20312 2.95312 7.20312H7.54688C7.71094 7.20312 7.875 7.36719 7.875 7.53125ZM7.54688 9.5C7.71094 9.5 7.875 9.66406 7.875 9.82812V10.5938C7.875 10.7852 7.71094 10.9219 7.54688 10.9219H2.95312C2.76172 10.9219 2.625 10.7852 2.625 10.5938V9.82812C2.625 9.66406 2.76172 9.5 2.95312 9.5H7.54688ZM10.5 4.35938V13.4375C10.5 14.1758 9.89844 14.75 9.1875 14.75H1.3125C0.574219 14.75 0 14.1758 0 13.4375V2.0625C0 1.35156 0.574219 0.75 1.3125 0.75H6.89062C7.21875 0.75 7.57422 0.914062 7.82031 1.16016L10.0898 3.42969C10.3359 3.67578 10.5 4.03125 10.5 4.35938ZM7 2.17188V4.25H9.07812L7 2.17188ZM9.1875 13.4375V5.5625H6.34375C5.96094 5.5625 5.6875 5.28906 5.6875 4.90625V2.0625H1.3125V13.4375H9.1875Z" fill="#4D4D4D"/>
</svg>
