<svg width="17" height="23" viewBox="0 0 17 23" fill="none" xmlns="http://www.w3.org/2000/svg">
<path d="M12.375 11.4062V12.6094C12.375 12.9102 12.1172 13.125 11.8594 13.125H4.64062C4.33984 13.125 4.125 12.9102 4.125 12.6094V11.4062C4.125 11.1484 4.33984 10.8906 4.64062 10.8906H11.8594C12.1172 10.8906 12.375 11.1484 12.375 11.4062ZM11.8594 14.5C12.1172 14.5 12.375 14.7578 12.375 15.0156V16.2188C12.375 16.5195 12.1172 16.7344 11.8594 16.7344H4.64062C4.33984 16.7344 4.125 16.5195 4.125 16.2188V15.0156C4.125 14.7578 4.33984 14.5 4.64062 14.5H11.8594ZM16.5 6.42188V20.6875C16.5 21.8477 15.5547 22.75 14.4375 22.75H2.0625C0.902344 22.75 0 21.8477 0 20.6875V2.8125C0 1.69531 0.902344 0.75 2.0625 0.75H10.8281C11.3438 0.75 11.9023 1.00781 12.2891 1.39453L15.8555 4.96094C16.2422 5.34766 16.5 5.90625 16.5 6.42188ZM11 2.98438V6.25H14.2656L11 2.98438ZM14.4375 20.6875V8.3125H9.96875C9.36719 8.3125 8.9375 7.88281 8.9375 7.28125V2.8125H2.0625V20.6875H14.4375Z" fill="#4D4D4D"/>
</svg>
