<svg width="16" height="15" viewBox="0 0 16 15" fill="none" xmlns="http://www.w3.org/2000/svg">
<path d="M4.375 13C5.05859 13 5.76953 12.3984 6.125 12.125C7.875 10.9219 8.39453 10.4844 8.75 10.2109V13.875C8.75 14.3672 8.33984 14.75 7.875 14.75H0.875C0.382812 14.75 0 14.3672 0 13.875V10.2109C0.328125 10.4844 0.875 10.9219 2.625 12.125C2.95312 12.3984 3.66406 13 4.375 13ZM7.875 7.75C8.33984 7.75 8.75 8.16016 8.75 8.625V9.17188C8.03906 9.69141 8.12109 9.69141 5.57812 11.5234C5.33203 11.6055 4.8125 12.125 4.375 12.125C3.9375 12.125 3.39062 11.6055 3.14453 11.4414C0.601562 9.60938 0.683594 9.60938 0 9.0625V8.625C0 8.16016 0.382812 7.75 0.875 7.75H7.875ZM14.875 5.125C15.3398 5.125 15.75 5.53516 15.75 6V11.25C15.75 11.7422 15.3398 12.125 14.875 12.125H9.625V8.46094H9.59766C9.51562 7.58594 8.77734 6.875 7.875 6.875H5.25V6C5.25 5.53516 5.63281 5.125 6.125 5.125H14.875ZM14 8.625V6.875H12.25V8.625H14ZM4.375 6V6.875H1.75V1.625C1.75 1.16016 2.13281 0.75 2.625 0.75H11.375C11.8398 0.75 12.25 1.16016 12.25 1.625V4.25H6.125C5.14062 4.25 4.375 5.04297 4.375 6Z" fill="#4D4D4D"/>
</svg>
