<svg width="18" height="15" viewBox="0 0 18 15" fill="none" xmlns="http://www.w3.org/2000/svg">
<path d="M6.125 7.03125C4.18359 7.03125 2.625 5.47266 2.625 3.53125C2.625 1.61719 4.18359 0.03125 6.125 0.03125C8.03906 0.03125 9.625 1.61719 9.625 3.53125C9.625 5.47266 8.03906 7.03125 6.125 7.03125ZM8.75 8.78125V13.1562C8.75 13.4844 8.83203 13.7852 8.96875 14.0312H1.3125C0.574219 14.0312 0 13.457 0 12.7188V11.5977C0 9.57422 1.64062 7.93359 3.66406 7.90625H4.12891C4.73047 8.20703 5.41406 8.34375 6.125 8.34375C6.83594 8.34375 7.49219 8.20703 8.09375 7.90625H8.55859C8.69531 7.90625 8.83203 7.93359 8.96875 7.96094C8.83203 8.20703 8.75 8.48047 8.75 8.78125ZM16.625 7.90625C17.0898 7.90625 17.5 8.31641 17.5 8.78125V13.1562C17.5 13.6484 17.0898 14.0312 16.625 14.0312H10.5C10.0078 14.0312 9.625 13.6484 9.625 13.1562V8.78125C9.625 8.31641 10.0078 7.90625 10.5 7.90625H11.375V5.71875C11.375 4.51562 12.332 3.53125 13.5625 3.53125C14.7656 3.53125 15.75 4.51562 15.75 5.71875V7.90625H16.625ZM13.5625 11.8438C14.0273 11.8438 14.4375 11.4609 14.4375 10.9688C14.4375 10.5039 14.0273 10.0938 13.5625 10.0938C13.0703 10.0938 12.6875 10.5039 12.6875 10.9688C12.6875 11.4609 13.0703 11.8438 13.5625 11.8438ZM14.4375 7.90625V5.71875C14.4375 5.25391 14.0273 4.84375 13.5625 4.84375C13.0703 4.84375 12.6875 5.25391 12.6875 5.71875V7.90625H14.4375Z" fill="#4D4D4D"/>
</svg>
