<svg width="14" height="12" viewBox="0 0 14 12" fill="none" xmlns="http://www.w3.org/2000/svg">
<path d="M13.5898 6.49609L8.99609 11.0898C8.58594 11.5 7.875 11.2266 7.875 10.625V8H4.15625C3.77344 8 3.5 7.72656 3.5 7.34375V4.71875C3.5 4.36328 3.77344 4.0625 4.15625 4.0625H7.875V1.4375C7.875 0.863281 8.55859 0.5625 8.99609 0.972656L13.5898 5.56641C13.8359 5.83984 13.8359 6.25 13.5898 6.49609ZM5.25 10.9531C5.25 11.1445 5.08594 11.2812 4.92188 11.2812H2.625C1.17578 11.2812 0 10.1055 0 8.65625V3.40625C0 1.95703 1.17578 0.78125 2.625 0.78125H4.92188C5.08594 0.78125 5.25 0.945312 5.25 1.10938V2.20312C5.25 2.39453 5.08594 2.53125 4.92188 2.53125H2.625C2.13281 2.53125 1.75 2.94141 1.75 3.40625V8.65625C1.75 9.14844 2.13281 9.53125 2.625 9.53125H4.92188C5.08594 9.53125 5.25 9.69531 5.25 9.85938V10.9531Z" fill="#4D4D4D"/>
</svg>
