<svg width="16" height="15" viewBox="0 0 16 15" fill="none" xmlns="http://www.w3.org/2000/svg">
<path d="M4.375 12.2812C5.05859 12.2812 5.76953 11.6797 6.125 11.4062C7.875 10.2031 8.39453 9.76562 8.75 9.49219V13.1562C8.75 13.6484 8.33984 14.0312 7.875 14.0312H0.875C0.382812 14.0312 0 13.6484 0 13.1562V9.49219C0.328125 9.76562 0.875 10.2031 2.625 11.4062C2.95312 11.6797 3.66406 12.2812 4.375 12.2812ZM7.875 7.03125C8.33984 7.03125 8.75 7.44141 8.75 7.90625V8.45312C8.03906 8.97266 8.12109 8.97266 5.57812 10.8047C5.33203 10.8867 4.8125 11.4062 4.375 11.4062C3.9375 11.4062 3.39062 10.8867 3.14453 10.7227C0.601562 8.89062 0.683594 8.89062 0 8.34375V7.90625C0 7.44141 0.382812 7.03125 0.875 7.03125H7.875ZM14.875 4.40625C15.3398 4.40625 15.75 4.81641 15.75 5.28125V10.5312C15.75 11.0234 15.3398 11.4062 14.875 11.4062H9.625V7.74219H9.59766C9.51562 6.86719 8.77734 6.15625 7.875 6.15625H5.25V5.28125C5.25 4.81641 5.63281 4.40625 6.125 4.40625H14.875ZM14 7.90625V6.15625H12.25V7.90625H14ZM4.375 5.28125V6.15625H1.75V0.90625C1.75 0.441406 2.13281 0.03125 2.625 0.03125H11.375C11.8398 0.03125 12.25 0.441406 12.25 0.90625V3.53125H6.125C5.14062 3.53125 4.375 4.32422 4.375 5.28125Z" fill="#4D4D4D"/>
</svg>
