<svg width="18" height="15" viewBox="0 0 18 15" fill="none" xmlns="http://www.w3.org/2000/svg">
<path d="M6.125 7.03125C4.18359 7.03125 2.625 5.47266 2.625 3.53125C2.625 1.61719 4.18359 0.03125 6.125 0.03125C8.03906 0.03125 9.625 1.61719 9.625 3.53125C9.625 5.47266 8.03906 7.03125 6.125 7.03125ZM8.55859 7.90625C9.65234 7.90625 10.6367 8.39844 11.293 9.16406L9.1875 11.2695L8.96875 11.4883L8.94141 11.7891L8.75 13.457C8.72266 13.6484 8.75 13.8672 8.80469 14.0312H1.3125C0.574219 14.0312 0 13.457 0 12.7188V11.5977C0 9.57422 1.64062 7.90625 3.66406 7.90625H4.12891C4.73047 8.20703 5.41406 8.34375 6.125 8.34375C6.83594 8.34375 7.49219 8.20703 8.09375 7.90625H8.55859ZM9.78906 11.8984L13.5625 8.125L15.5312 10.0938L11.7578 13.8672L10.0898 14.0312C9.81641 14.0859 9.59766 13.8398 9.625 13.5664L9.78906 11.8984ZM17.3086 7.38672C17.5547 7.66016 17.5547 8.07031 17.3086 8.31641L16.1602 9.46484L14.1914 7.49609L14.3008 7.38672L15.3398 6.34766C15.5859 6.10156 15.9961 6.10156 16.2695 6.34766L17.3086 7.38672Z" fill="#4D4D4D"/>
</svg>
