<svg width="19" height="15" viewBox="0 0 19 15" fill="none" xmlns="http://www.w3.org/2000/svg">
<path d="M17.4609 4.00391C18.3633 5.48047 17.543 7.50391 15.8477 7.72266C15.7109 7.75 15.6016 7.75 15.4648 7.75C14.6445 7.75 13.9336 7.39453 13.4414 6.84766C12.9492 7.39453 12.2383 7.75 11.418 7.75C10.625 7.75 9.88672 7.39453 9.39453 6.84766C8.90234 7.39453 8.19141 7.75 7.39844 7.75C6.57812 7.75 5.86719 7.39453 5.375 6.84766C4.88281 7.39453 4.17188 7.75 3.35156 7.75C3.21484 7.75 3.10547 7.75 2.96875 7.72266C1.27344 7.50391 0.453125 5.48047 1.38281 4.00391L3.13281 1.16016C3.29688 0.914062 3.59766 0.75 3.89844 0.75H14.9453C15.2461 0.75 15.5195 0.914062 15.6836 1.16016L17.4609 4.00391ZM15.4648 8.625C15.6289 8.625 15.793 8.625 15.957 8.59766C16.1211 8.59766 16.2578 8.54297 16.4219 8.51562V13.875C16.4219 14.3672 16.0117 14.75 15.5469 14.75H3.29688C2.80469 14.75 2.42188 14.3672 2.42188 13.875V8.51562C2.55859 8.54297 2.69531 8.57031 2.85938 8.59766C3.02344 8.625 3.1875 8.625 3.35156 8.625C3.625 8.625 3.89844 8.59766 4.17188 8.54297V11.25H14.6719V8.54297C14.918 8.59766 15.1914 8.625 15.4648 8.625Z" fill="#4D4D4D"/>
</svg>
