<svg width="14" height="15" viewBox="0 0 14 15" fill="none" xmlns="http://www.w3.org/2000/svg">
<path d="M7 2.0625C3.85547 2.0625 1.3125 4.63281 1.3125 7.75C1.3125 10.8945 3.85547 13.4375 7 13.4375C10.1172 13.4375 12.6875 10.8945 12.6875 7.75C12.6875 4.63281 10.1172 2.0625 7 2.0625ZM7 0.96875C10.7188 0.96875 13.7812 4.03125 13.7812 7.75C13.7812 11.4961 10.7188 14.5312 7 14.5312C3.25391 14.5312 0.21875 11.4961 0.21875 7.75C0.21875 4.03125 3.25391 0.96875 7 0.96875ZM7 2.5C9.89844 2.5 12.25 4.85156 12.25 7.75C12.25 10.6758 9.89844 13 7 13C4.07422 13 1.75 10.6758 1.75 7.75C1.75 4.85156 4.07422 2.5 7 2.5ZM7 3.70312C6.45312 3.70312 6.01562 4.16797 6.01562 4.6875C6.01562 5.23438 6.45312 5.67188 7 5.67188C7.51953 5.67188 7.98438 5.23438 7.98438 4.6875C7.98438 4.16797 7.51953 3.70312 7 3.70312ZM10.1992 6.41016C10.4453 6.32812 10.582 6.10938 10.5273 5.86328C10.4727 5.64453 10.2266 5.48047 10.0078 5.53516C7.35547 6.16406 6.61719 6.16406 3.96484 5.53516C3.74609 5.48047 3.5 5.64453 3.44531 5.86328C3.39062 6.10938 3.52734 6.32812 3.77344 6.41016C4.53906 6.57422 5.27734 6.73828 6.01562 6.82031C5.98828 9.58203 5.6875 10.1836 5.33203 11.0859C5.22266 11.332 5.35938 11.6328 5.60547 11.7148C5.85156 11.8242 6.15234 11.6875 6.23438 11.4414C6.48047 10.8398 6.69922 10.3203 6.86328 9.28125H7.10938C7.27344 10.3203 7.49219 10.8398 7.73828 11.4414C7.82031 11.6875 8.12109 11.8242 8.36719 11.7148C8.61328 11.6328 8.75 11.332 8.64062 11.0859C8.28516 10.1836 7.98438 9.58203 7.95703 6.82031C8.69531 6.73828 9.43359 6.57422 10.1992 6.41016Z" fill="#4D4D4D"/>
</svg>
