<svg width="16" height="16" viewBox="0 0 16 16" fill="none" xmlns="http://www.w3.org/2000/svg">
<path d="M9.3125 11.8516C9.42188 11.9883 9.42188 12.207 9.3125 12.3164L8.08203 13.5469C6.46875 15.1602 3.81641 15.1602 2.20312 13.5469C0.589844 11.9336 0.589844 9.28125 2.20312 7.66797L3.43359 6.4375C3.54297 6.32812 3.76172 6.32812 3.89844 6.4375L4.96484 7.53125C5.10156 7.66797 5.10156 7.85938 4.96484 7.99609L3.76172 9.22656C2.96875 9.99219 2.96875 11.2227 3.76172 11.9883C4.52734 12.7812 5.75781 12.7812 6.52344 11.9883L7.75391 10.7852C7.89062 10.6484 8.08203 10.6484 8.21875 10.7852L9.3125 11.8516ZM7.75391 4.74219L6.66016 3.67578C6.55078 3.53906 6.55078 3.32031 6.66016 3.21094L7.89062 1.98047C9.50391 0.367188 12.1562 0.367188 13.7695 1.98047C15.3828 3.59375 15.3828 6.24609 13.7695 7.85938L12.5391 9.08984C12.4297 9.19922 12.2109 9.19922 12.0742 9.08984L11.0078 7.99609C10.8711 7.85938 10.8711 7.66797 11.0078 7.53125L12.2109 6.30078C13.0039 5.53516 13.0039 4.30469 12.2109 3.53906C11.4453 2.74609 10.2148 2.74609 9.44922 3.53906L8.21875 4.74219C8.08203 4.87891 7.89062 4.87891 7.75391 4.74219ZM14.1797 14.5586C13.9062 14.832 13.4961 14.832 13.25 14.5586L1.19141 2.5C0.917969 2.25391 0.917969 1.84375 1.19141 1.57031L1.79297 0.96875C2.06641 0.695312 2.47656 0.695312 2.72266 0.96875L14.7812 13.0273C15.0547 13.2734 15.0547 13.6836 14.7812 13.957L14.1797 14.5586Z" fill="#4D4D4D"/>
</svg>
