<svg width="18" height="15" viewBox="0 0 18 15" fill="none" xmlns="http://www.w3.org/2000/svg">
<path d="M6.125 7.75C4.18359 7.75 2.625 6.19141 2.625 4.25C2.625 2.33594 4.18359 0.75 6.125 0.75C8.03906 0.75 9.625 2.33594 9.625 4.25C9.625 6.19141 8.03906 7.75 6.125 7.75ZM8.75 9.5V13.875C8.75 14.2031 8.83203 14.5039 8.96875 14.75H1.3125C0.574219 14.75 0 14.1758 0 13.4375V12.3164C0 10.293 1.64062 8.65234 3.66406 8.625H4.12891C4.73047 8.92578 5.41406 9.0625 6.125 9.0625C6.83594 9.0625 7.49219 8.92578 8.09375 8.625H8.55859C8.69531 8.625 8.83203 8.65234 8.96875 8.67969C8.83203 8.92578 8.75 9.19922 8.75 9.5ZM16.625 8.625C17.0898 8.625 17.5 9.03516 17.5 9.5V13.875C17.5 14.3672 17.0898 14.75 16.625 14.75H10.5C10.0078 14.75 9.625 14.3672 9.625 13.875V9.5C9.625 9.03516 10.0078 8.625 10.5 8.625H11.375V6.4375C11.375 5.23438 12.332 4.25 13.5625 4.25C14.7656 4.25 15.75 5.23438 15.75 6.4375V8.625H16.625ZM13.5625 12.5625C14.0273 12.5625 14.4375 12.1797 14.4375 11.6875C14.4375 11.2227 14.0273 10.8125 13.5625 10.8125C13.0703 10.8125 12.6875 11.2227 12.6875 11.6875C12.6875 12.1797 13.0703 12.5625 13.5625 12.5625ZM14.4375 8.625V6.4375C14.4375 5.97266 14.0273 5.5625 13.5625 5.5625C13.0703 5.5625 12.6875 5.97266 12.6875 6.4375V8.625H14.4375Z" fill="#4D4D4D"/>
</svg>
