<svg width="18" height="15" viewBox="0 0 18 15" fill="none" xmlns="http://www.w3.org/2000/svg">
<path d="M17.0625 6.4375C17.2812 6.4375 17.5 6.65625 17.5 6.875V7.75C17.5 7.99609 17.2812 8.1875 17.0625 8.1875H15.3125V9.9375C15.3125 10.1836 15.0938 10.375 14.875 10.375H14C13.7539 10.375 13.5625 10.1836 13.5625 9.9375V8.1875H11.8125C11.5664 8.1875 11.375 7.99609 11.375 7.75V6.875C11.375 6.65625 11.5664 6.4375 11.8125 6.4375H13.5625V4.6875C13.5625 4.46875 13.7539 4.25 14 4.25H14.875C15.0938 4.25 15.3125 4.46875 15.3125 4.6875V6.4375H17.0625ZM6.125 7.75C4.18359 7.75 2.625 6.19141 2.625 4.25C2.625 2.33594 4.18359 0.75 6.125 0.75C8.03906 0.75 9.625 2.33594 9.625 4.25C9.625 6.19141 8.03906 7.75 6.125 7.75ZM8.55859 8.625C10.582 8.625 12.25 10.293 12.25 12.3164V13.4375C12.25 14.1758 11.6484 14.75 10.9375 14.75H1.3125C0.574219 14.75 0 14.1758 0 13.4375V12.3164C0 10.293 1.64062 8.625 3.66406 8.625H4.12891C4.73047 8.92578 5.41406 9.0625 6.125 9.0625C6.83594 9.0625 7.49219 8.92578 8.09375 8.625H8.55859Z" fill="#4D4D4D"/>
</svg>
