<svg width="18" height="15" viewBox="0 0 18 15" fill="none" xmlns="http://www.w3.org/2000/svg">
<path d="M6.125 7.75C4.18359 7.75 2.625 6.19141 2.625 4.25C2.625 2.33594 4.18359 0.75 6.125 0.75C8.03906 0.75 9.625 2.33594 9.625 4.25C9.625 6.19141 8.03906 7.75 6.125 7.75ZM8.55859 8.625C9.65234 8.625 10.6367 9.11719 11.293 9.88281L9.1875 11.9883L8.96875 12.207L8.94141 12.5078L8.75 14.1758C8.72266 14.3672 8.75 14.5859 8.80469 14.75H1.3125C0.574219 14.75 0 14.1758 0 13.4375V12.3164C0 10.293 1.64062 8.625 3.66406 8.625H4.12891C4.73047 8.92578 5.41406 9.0625 6.125 9.0625C6.83594 9.0625 7.49219 8.92578 8.09375 8.625H8.55859ZM9.78906 12.6172L13.5625 8.84375L15.5312 10.8125L11.7578 14.5859L10.0898 14.75C9.81641 14.8047 9.59766 14.5586 9.625 14.2852L9.78906 12.6172ZM17.3086 8.10547C17.5547 8.37891 17.5547 8.78906 17.3086 9.03516L16.1602 10.1836L14.1914 8.21484L14.3008 8.10547L15.3398 7.06641C15.5859 6.82031 15.9961 6.82031 16.2695 7.06641L17.3086 8.10547Z" fill="#4D4D4D"/>
</svg>
